<svg width="52" height="52" viewBox="0 0 52 52" fill="none" xmlns="http://www.w3.org/2000/svg">
<path d="M41.0832 48.6127H12.3882V23.3943H18.0326V17.762H23.0262V8.6076H33.4929L41.0832 16.1988V48.6127Z" fill="#E6ECFF"/>
<path d="M39.6801 14.7948V44.7955C39.6801 45.4355 39.4258 46.0493 38.9733 46.5019C38.5207 46.9544 37.9069 47.2087 37.2669 47.2087H12.3882V48.6127H41.0832V16.1988L39.6801 14.7948Z" fill="#BAC6E2"/>
<path d="M11.0857 2.69427H18.7565V10.3651H11.0857V2.69427Z" fill="#E6ECFF"/>
<path d="M1.4585 13.6736H9.12931V21.3444H1.4585V13.6736Z" fill="#E6ECFF"/>
<path d="M12.3882 44.2479H38.3256H41.0832V48.6127H12.3882V44.2479Z" fill="#5AA9E6"/>
<path d="M39.6801 44.2479V44.7955C39.6801 45.4356 39.4258 46.0493 38.9733 46.5019C38.5207 46.9544 37.9069 47.2087 37.2669 47.2087H12.3882V48.6127H41.0832V44.2479H39.6801Z" fill="#4686C6"/>
<path d="M41.0833 16.1988H33.4929V8.6076L41.0833 16.1988Z" fill="#5AA9E6"/>
<path d="M41.9006 45.7974L41.0832 46.3718L40.2667 45.7974C37.5973 43.9211 35.4187 41.4301 33.9147 38.5346C32.4107 35.6391 31.6257 32.4242 31.6257 29.1614V26.7759L41.0832 23.6072L50.5415 26.7759V29.1614C50.5416 32.4242 49.7565 35.6391 48.2526 38.5346C46.7486 41.4301 44.57 43.9211 41.9006 45.7974Z" fill="#5AA9E6"/>
<path d="M49.2725 26.3502V28.552C49.2724 31.8149 48.4871 35.0298 46.983 37.9253C45.4789 40.8208 43.3002 43.3118 40.6307 45.188L40.0229 45.6153C40.1042 45.6747 40.1854 45.7388 40.2667 45.7973L41.0833 46.3718L41.9006 45.7973C44.57 43.9211 46.7487 41.4301 48.2526 38.5346C49.7566 35.6391 50.5417 32.4242 50.5416 29.1614V26.7759L49.2725 26.3502Z" fill="#4686C6"/>
<path d="M41.0833 38.4386L50.388 31.6493C50.4903 30.824 50.5416 29.9931 50.5416 29.1614V26.7759L41.0833 33.6773V38.4386Z" fill="#E6ECFF"/>
<path d="M49.2725 27.7062V28.5553C49.2695 29.9826 49.1161 31.4055 48.8151 32.8006L50.3881 31.6526C50.4384 31.2447 50.4766 30.8344 50.5026 30.4216V30.4119C50.5286 29.9975 50.5416 29.5807 50.5416 29.1614V26.7759L49.2725 27.7062Z" fill="#BAC6E2"/>
<path d="M16.0315 39.6005H23.9192V41.2255H16.0315V39.6005Z" fill="#BAC6E2"/>
</svg>
