<svg width="48" height="48" viewBox="0 0 48 48" fill="none" xmlns="http://www.w3.org/2000/svg">
<path d="M12.5378 31.5637L8.01531 36.0862V28.95H6.17256C5.59571 28.95 5.04249 28.7208 4.6346 28.3129C4.22671 27.905 3.99756 27.3518 3.99756 26.775V12.3532C3.99756 11.7764 4.22671 11.2232 4.6346 10.8153C5.04249 10.4074 5.59571 10.1782 6.17256 10.1782H32.2501V28.4662L12.5378 31.5637Z" fill="#5AA9E6"/>
<path d="M41.5718 31.35C41.5718 31.9269 41.3426 32.4801 40.9347 32.888C40.5269 33.2959 39.9736 33.525 39.3968 33.525H37.5518V40.662L30.414 33.525H14.715C14.1382 33.525 13.585 33.2959 13.1771 32.888C12.7692 32.4801 12.54 31.9269 12.54 31.35V16.9343C12.54 16.3574 12.7692 15.8042 13.1771 15.3963C13.585 14.9884 14.1382 14.7593 14.715 14.7593H41.5718V31.35Z" fill="#E6ECFF"/>
<path d="M38.3286 26.637L37.5606 27.177L36.7926 26.637C34.2838 24.8735 32.2361 22.5322 30.8225 19.8107C29.409 17.0893 28.671 14.0677 28.6709 11.001V8.75927L37.5606 5.77502L46.4504 8.75627V10.998C46.451 14.0652 45.7133 17.0875 44.2997 19.8095C42.8861 22.5316 40.8381 24.8733 38.3286 26.637Z" fill="#5AA9E6"/>
<path d="M45.0841 8.30103V10.3583C45.0842 13.425 44.3463 16.4467 42.9327 19.1681C41.5191 21.8896 39.4714 24.2309 36.9624 25.9943L36.4321 26.3693C36.5536 26.4585 36.6699 26.553 36.7929 26.6393L37.5609 27.1793L38.3289 26.6393C40.838 24.8755 42.8859 22.5338 44.2995 19.812C45.7131 17.0901 46.4509 14.0681 46.4506 11.001V8.75928L45.0841 8.30103Z" fill="#4686C6"/>
<path d="M37.5605 19.7205L46.3063 13.3395C46.4018 12.5637 46.4499 11.7827 46.4503 11.001V8.75928L37.5605 15.2453V19.7205Z" fill="#E6ECFF"/>
<path d="M45.0842 9.75603V10.356C45.0823 11.777 44.9215 13.1933 44.605 14.5785L46.3067 13.3373C46.3532 12.9593 46.3882 12.5793 46.4117 12.1973V12.174C46.4357 11.784 46.448 11.3923 46.4485 10.9988V8.75928L45.0842 9.75603Z" fill="#BAC6E2"/>
<path d="M26.5328 25.4588C27.2593 25.4588 27.8483 24.8698 27.8483 24.1433C27.8483 23.4167 27.2593 22.8278 26.5328 22.8278C25.8063 22.8278 25.2173 23.4167 25.2173 24.1433C25.2173 24.8698 25.8063 25.4588 26.5328 25.4588Z" fill="#BAC6E2"/>
<path d="M19.7828 25.4588C20.5093 25.4588 21.0983 24.8698 21.0983 24.1433C21.0983 23.4167 20.5093 22.8278 19.7828 22.8278C19.0563 22.8278 18.4673 23.4167 18.4673 24.1433C18.4673 24.8698 19.0563 25.4588 19.7828 25.4588Z" fill="#BAC6E2"/>
</svg>
