<svg width="52" height="52" viewBox="0 0 52 52" fill="none" xmlns="http://www.w3.org/2000/svg">
<path d="M20.1704 9.95636H47.4525V18.7013H20.1704V9.95636Z" fill="#E6ECFF"/>
<path d="M15.2627 18.7013H47.4523V27.4462H15.2627V18.7013Z" fill="#E6ECFF"/>
<path d="M10.2668 27.4462H47.4533V36.1912H10.2668V27.4462Z" fill="#E6ECFF"/>
<path d="M45.9145 9.95636V15.1937C45.9146 15.4529 45.8636 15.7095 45.7645 15.9489C45.6654 16.1884 45.5202 16.4059 45.337 16.5892C45.1538 16.7725 44.9362 16.9179 44.6968 17.0171C44.4575 17.1162 44.2009 17.1673 43.9417 17.1673H20.1704V18.7054H47.4501V9.95636H45.9145Z" fill="#BAC6E2"/>
<path d="M45.9145 18.7013V23.9346C45.9146 24.1937 45.8637 24.4504 45.7646 24.6898C45.6655 24.9292 45.5202 25.1468 45.337 25.3301C45.1538 25.5133 44.9363 25.6587 44.6969 25.7579C44.4575 25.8571 44.2009 25.9082 43.9417 25.9082H15.2605V27.4462H47.4501V18.7013H45.9145Z" fill="#BAC6E2"/>
<path d="M45.9145 27.4462V32.6145C45.9146 32.8823 45.8619 33.1475 45.7594 33.395C45.657 33.6424 45.5067 33.8672 45.3173 34.0565C45.1279 34.2459 44.9031 34.396 44.6556 34.4984C44.4081 34.6007 44.1429 34.6533 43.8751 34.6531H10.2668V36.1912H47.4501V27.4462H45.9145Z" fill="#BAC6E2"/>
<path d="M12.1941 36.1912H45.5253V40.5632H12.1941V36.1912Z" fill="#BAC6E2"/>
<path d="M12.1941 36.1912H45.5253V38.0713H12.1941V36.1912Z" fill="#95A2BC"/>
<path d="M47.4524 40.5632H28.86H10.2668L7.61963 44.7679H28.86H50.0996L47.4524 40.5632Z" fill="#5AA9E6"/>
<path d="M12.6538 29.6099L11.7983 30.2112L10.9435 29.6099C8.14997 27.6463 5.86995 25.0393 4.296 22.009C2.72205 18.9788 1.90038 15.6143 1.90039 12.1997V9.70285L11.7983 6.38379L21.6937 9.70285V12.1997C21.6941 15.614 20.8729 18.9783 19.2995 22.0085C17.7262 25.0388 15.4468 27.6459 12.6538 29.6099Z" fill="#5AA9E6"/>
<path d="M20.3661 9.25684V11.3872C20.3662 14.8019 19.5446 18.1664 17.9706 21.1966C16.3967 24.2269 14.1166 26.8339 11.323 28.7975L10.5674 29.328C10.6941 29.4215 10.8111 29.5198 10.9436 29.61L11.7983 30.2112L12.6539 29.61C15.4468 27.646 17.7262 25.0388 19.2996 22.0086C20.873 18.9784 21.6941 15.6141 21.6938 12.1997V9.7029L20.3661 9.25684Z" fill="#4686C6"/>
<path d="M11.7983 21.9091L21.5362 14.8038C21.6437 13.9412 21.6979 13.0729 21.6987 12.2038V9.70288L11.8 16.926L11.7983 21.9091Z" fill="#E6ECFF"/>
<path d="M20.3662 11.6058C20.3632 13.0788 20.2072 14.5476 19.9006 15.9884L21.5606 14.7769C21.6497 13.9947 21.6953 13.208 21.6971 12.4207V9.70288L21.4834 9.85076L20.3662 10.6633V11.6058Z" fill="#BAC6E2"/>
<path d="M37.7893 9.95636H47.4524V18.7013H37.7893V9.95636Z" fill="#5AA9E6"/>
<path d="M45.9143 9.95636V15.1937C45.9144 15.4529 45.8635 15.7095 45.7644 15.9489C45.6653 16.1884 45.52 16.4059 45.3368 16.5892C45.1536 16.7725 44.9361 16.9179 44.6967 17.0171C44.4573 17.1162 44.2007 17.1673 43.9416 17.1673H37.7893V18.7054H47.4499V9.95636H45.9143Z" fill="#4686C6"/>
<path d="M37.7893 18.7013H47.4524V27.4462H37.7893V18.7013Z" fill="#5AA9E6"/>
<path d="M45.9143 18.7013V23.9346C45.9144 24.1937 45.8635 24.4504 45.7644 24.6898C45.6653 24.9292 45.52 25.1468 45.3368 25.3301C45.1536 25.5133 44.9361 25.6587 44.6967 25.7579C44.4573 25.8571 44.2007 25.9082 43.9416 25.9082H37.7893V27.4462H47.4499V18.7013H45.9143Z" fill="#4686C6"/>
<path d="M37.7893 27.4462H47.4524V36.1912H37.7893V27.4462Z" fill="#5AA9E6"/>
<path d="M45.9143 27.4462V32.8469C45.9143 33.3259 45.724 33.7854 45.3853 34.1241C45.0466 34.4628 44.5872 34.6531 44.1081 34.6531H37.7893V36.1912H47.4499V27.4462H45.9143Z" fill="#4686C6"/>
<path d="M40.1611 12.5295H45.2059V14.1545H40.1611V12.5295Z" fill="#E6ECFF"/>
<path d="M40.1611 21.2745H45.2059V22.8995H40.1611V21.2745Z" fill="#E6ECFF"/>
<path d="M40.1611 30.0186H45.2059V31.6436H40.1611V30.0186Z" fill="#E6ECFF"/>
<path d="M20.8382 24.4189C21.5813 24.4189 22.1837 23.8165 22.1837 23.0734C22.1837 22.3303 21.5813 21.7279 20.8382 21.7279C20.0951 21.7279 19.4927 22.3303 19.4927 23.0734C19.4927 23.8165 20.0951 24.4189 20.8382 24.4189Z" fill="#5AA9E6"/>
<path d="M14.9856 33.1638C15.7287 33.1638 16.3311 32.5614 16.3311 31.8183C16.3311 31.0752 15.7287 30.4728 14.9856 30.4728C14.2425 30.4728 13.6401 31.0752 13.6401 31.8183C13.6401 32.5614 14.2425 33.1638 14.9856 33.1638Z" fill="#5AA9E6"/>
<path d="M20.8382 33.1638C21.5813 33.1638 22.1837 32.5614 22.1837 31.8183C22.1837 31.0752 21.5813 30.4728 20.8382 30.4728C20.0951 30.4728 19.4927 31.0752 19.4927 31.8183C19.4927 32.5614 20.0951 33.1638 20.8382 33.1638Z" fill="#5AA9E6"/>
</svg>
