<svg width="52" height="52" viewBox="0 0 52 52" fill="none" xmlns="http://www.w3.org/2000/svg">
<path d="M37.0695 26.4558V2.4375H5.57211V45.7039H31.3267L37.6821 39.3486L37.0695 26.4558Z" fill="#E6ECFF"/>
<path d="M21.3208 29.1402C27.3038 29.1402 32.1539 24.2901 32.1539 18.3072C32.1539 12.3242 27.3038 7.47412 21.3208 7.47412C15.3379 7.47412 10.4878 12.3242 10.4878 18.3072C10.4878 24.2901 15.3379 29.1402 21.3208 29.1402Z" fill="#5AA9E6"/>
<path d="M21.3208 21.9214C23.3168 21.9214 24.9348 20.3033 24.9348 18.3074C24.9348 16.3114 23.3168 14.6934 21.3208 14.6934C19.3249 14.6934 17.7068 16.3114 17.7068 18.3074C17.7068 20.3033 19.3249 21.9214 21.3208 21.9214Z" fill="#E6ECFF"/>
<path d="M28.5821 45.704L18.3349 35.4568H5.57211V45.704H28.5821Z" fill="#5AA9E6"/>
<path d="M37.9511 50.3953L37.0695 51.0144L36.1888 50.3953C33.3094 48.3713 30.9593 45.6843 29.3369 42.561C27.7145 39.4377 26.8673 35.97 26.8669 32.4504V29.8772L37.0695 26.4558L47.2721 29.8772V32.4504C47.2718 35.9699 46.4248 39.4376 44.8025 42.5609C43.1802 45.6841 40.8302 48.3712 37.9511 50.3953Z" fill="#5AA9E6"/>
<path d="M45.6178 29.3223V31.7971C45.6176 35.3166 44.7705 38.7843 43.1482 41.9076C41.5259 45.0308 39.176 47.7179 36.2968 49.742L35.7914 50.0979C35.9247 50.1962 36.0523 50.3002 36.1888 50.3953L37.0695 51.0144L37.9511 50.3953C40.8302 48.3712 43.1802 45.6841 44.8025 42.5608C46.4248 39.4376 47.2718 35.9698 47.2721 32.4504V29.8772L45.6178 29.3223Z" fill="#4686C6"/>
<path d="M37.0695 42.4571L47.1063 35.1341C47.2151 34.2445 47.2694 33.3491 47.2688 32.4528V29.8772L37.0695 37.3213V42.4571Z" fill="#E6ECFF"/>
<path d="M45.6178 31.0838V31.7971C45.6151 33.4192 45.4325 35.0359 45.0735 36.6177L47.1047 35.1341C47.1589 34.6953 47.1998 34.2539 47.2274 33.8097V33.7999C47.255 33.3525 47.2691 32.9029 47.2696 32.4512V29.8772L45.6178 31.0838Z" fill="#BAC6E2"/>
<path d="M33.6156 6.88673C34.2299 6.88673 34.7279 6.38874 34.7279 5.77442C34.7279 5.16011 34.2299 4.66211 33.6156 4.66211C33.0013 4.66211 32.5033 5.16011 32.5033 5.77442C32.5033 6.38874 33.0013 6.88673 33.6156 6.88673Z" fill="#BAC6E2"/>
<path d="M9.37626 6.88673C9.99057 6.88673 10.4886 6.38874 10.4886 5.77442C10.4886 5.16011 9.99057 4.66211 9.37626 4.66211C8.76195 4.66211 8.26395 5.16011 8.26395 5.77442C8.26395 6.38874 8.76195 6.88673 9.37626 6.88673Z" fill="#BAC6E2"/>
<path d="M8.10876 30.6248H15.2125V32.2498H8.10876V30.6248Z" fill="#BAC6E2"/>
</svg>
