<svg width="48" height="48" viewBox="0 0 48 48" fill="none" xmlns="http://www.w3.org/2000/svg">
<path d="M28.4062 41.3722H5.91074V40.8735V26.037V19.8187H38.2395V24.648L28.4062 41.3722Z" fill="#E6ECFF"/>
<path d="M38.2395 15.1567V10.7024L29.688 1.3927H17.8957H5.91074V15.1567H38.2395Z" fill="#E6ECFF"/>
<path d="M34.8458 46.0178L34.0073 46.6073L33.1688 46.0178C30.4277 44.0911 28.1905 41.5331 26.6462 38.5599C25.1018 35.5867 24.2955 32.2854 24.2955 28.935V26.4855L34.0073 23.2283L43.7198 26.4855V28.935C43.7196 32.2855 42.9132 35.5867 41.3687 38.56C39.8242 41.5332 37.5869 44.0911 34.8458 46.0178Z" fill="#5AA9E6"/>
<path d="M42.3532 26.025V28.185C42.3533 31.5355 41.5471 34.8367 40.0027 37.81C38.4583 40.7832 36.2211 43.3412 33.48 45.2678L32.805 45.744C32.928 45.834 33.0457 45.93 33.171 46.0178L34.0095 46.6073L34.848 46.0178C37.5887 44.0909 39.8255 41.5328 41.3696 38.5596C42.9137 35.5864 43.7198 32.2853 43.7197 28.935V26.4855L42.3532 26.025Z" fill="#4686C6"/>
<path d="M4.28024 15.1567H39.87V19.8195H4.28024V15.1567Z" fill="#5AA9E6"/>
<path d="M38.6347 15.1567V17.3527C38.6347 17.6792 38.5051 17.9922 38.2743 18.223C38.0435 18.4538 37.7304 18.5835 37.404 18.5835H4.28024V19.8187H39.87V15.1567H38.6347Z" fill="#4686C6"/>
<path d="M38.2395 10.7025H29.688V1.3927L38.2395 10.7025Z" fill="#5AA9E6"/>
<path d="M34.0073 38.4607L43.5623 31.4857C43.6668 30.6382 43.7194 29.7851 43.7198 28.9312V26.4855L34.0073 33.5715V38.4607Z" fill="#E6ECFF"/>
<path d="M42.3533 27.4823V28.1851C42.3505 29.7193 42.1788 31.2485 41.841 32.7451L43.5615 31.4896C43.6115 31.0706 43.6505 30.6491 43.6785 30.2251V30.2183C43.7055 29.7933 43.719 29.3656 43.719 28.9351V26.4856L42.3533 27.4823Z" fill="#BAC6E2"/>
<path d="M9.918 35.8538H12.678V37.3538H9.918V35.8538Z" fill="#BAC6E2"/>
<path d="M14.766 35.8538H17.601V37.3538H14.766V35.8538Z" fill="#BAC6E2"/>
<path d="M10.533 6.4718H23.1202V7.9718H10.533V6.4718Z" fill="#BAC6E2"/>
</svg>
