<svg width="18" height="18" viewBox="0 0 18 18" fill="none" xmlns="http://www.w3.org/2000/svg">
<path d="M13.941 11.4481C15.0768 10.1017 15.5016 8.55006 15.0804 6.82566C14.7042 5.28126 13.7412 4.14366 12.4146 3.31566C10.818 2.32026 9.0702 1.97826 7.209 2.21226C5.4108 2.43906 3.8484 3.15726 2.6352 4.52526C1.4328 5.87886 0.972 7.45926 1.4022 9.23766C1.575 9.94686 1.8234 10.6381 1.8666 11.3761C1.9224 12.2905 1.7964 13.1671 1.3482 13.9807C1.2798 14.1049 1.2024 14.2237 1.125 14.3497C1.1556 14.3605 1.17 14.3695 1.1826 14.3677C2.367 14.2111 3.4866 13.8655 4.4946 13.2085C4.59 13.1455 4.6656 13.1095 4.7898 13.1689C6.3504 13.8997 7.9848 14.1139 9.6804 13.8115C11.3688 13.5091 12.8268 12.7711 13.941 11.4481ZM16.794 15.6277C16.695 15.5035 16.5924 15.3775 16.5204 15.2389C16.0632 14.3515 16.1118 13.4335 16.4142 12.5227C16.7346 11.5561 16.695 10.6183 16.2684 9.70026C16.1496 9.44646 15.9876 9.21246 15.8202 8.92266C15.7878 9.04506 15.7716 9.09726 15.7608 9.15126C15.6114 9.92166 15.3144 10.6327 14.8698 11.2753C13.599 13.1185 11.7972 14.1049 9.6264 14.4721C9.2412 14.5369 8.8488 14.5585 8.451 14.6017C8.4654 14.6233 8.4744 14.6431 8.4888 14.6521C8.5878 14.7169 8.6832 14.7835 8.7876 14.8393C10.4526 15.7321 12.1572 15.8005 13.9014 15.0931C13.9716 15.0643 14.0832 15.0571 14.1426 15.0931C14.706 15.4315 15.3126 15.6547 15.9534 15.7807C16.2018 15.8293 16.4574 15.8599 16.7094 15.8545C16.9074 15.8509 16.9182 15.7825 16.794 15.6277Z" fill="#D15F5F"/>
</svg>
