<svg width="18" height="18" viewBox="0 0 18 18" fill="none" xmlns="http://www.w3.org/2000/svg">
<path d="M9.00001 1.79999C7.47236 1.79999 6.00728 2.40684 4.92707 3.48705C3.84686 4.56726 3.24001 6.03234 3.24001 7.55999C3.23527 8.9934 3.76986 10.3762 4.73761 11.4336L8.72641 16.074C8.7602 16.1135 8.80216 16.1452 8.84939 16.167C8.89662 16.1887 8.94801 16.2 9.00001 16.2C9.05201 16.2 9.10339 16.1887 9.15062 16.167C9.19785 16.1452 9.23981 16.1135 9.27361 16.074L13.2624 11.4336C14.2302 10.3762 14.7647 8.9934 14.76 7.55999C14.76 6.03234 14.1532 4.56726 13.0729 3.48705C11.9927 2.40684 10.5277 1.79999 9.00001 1.79999V1.79999ZM12.7152 10.9656L9.00001 15.2892L5.28481 10.9692C4.62381 10.2481 4.18693 9.3503 4.02745 8.38521C3.86796 7.42012 3.99276 6.42947 4.38663 5.53409C4.78051 4.63871 5.42642 3.87729 6.2456 3.34271C7.06478 2.80812 8.02183 2.52347 9.00001 2.52347C9.97819 2.52347 10.9352 2.80812 11.7544 3.34271C12.5736 3.87729 13.2195 4.63871 13.6134 5.53409C14.0073 6.42947 14.1321 7.42012 13.9726 8.38521C13.8131 9.3503 13.3762 10.2481 12.7152 10.9692V10.9656Z" fill="#266FE2"/>
<path d="M9.00001 5.03998C8.5016 5.03998 8.01439 5.18777 7.59997 5.46467C7.18556 5.74158 6.86257 6.13515 6.67184 6.59562C6.4811 7.05609 6.4312 7.56277 6.52843 8.05161C6.62567 8.54044 6.86568 8.98946 7.2181 9.34189C7.57053 9.69431 8.01955 9.93432 8.50838 10.0316C8.99722 10.1288 9.5039 10.0789 9.96437 9.88815C10.4248 9.69742 10.8184 9.37443 11.0953 8.96001C11.3722 8.5456 11.52 8.05839 11.52 7.55998C11.52 6.89163 11.2545 6.25066 10.7819 5.77807C10.3093 5.30548 9.66836 5.03998 9.00001 5.03998V5.03998ZM9.00001 9.35998C8.64401 9.35998 8.29599 9.25441 7.99999 9.05662C7.70398 8.85884 7.47327 8.57771 7.33703 8.24881C7.20079 7.9199 7.16515 7.55798 7.2346 7.20881C7.30405 6.85965 7.47549 6.53892 7.72722 6.28719C7.97895 6.03545 8.29968 5.86402 8.64885 5.79456C8.99801 5.72511 9.35994 5.76076 9.68884 5.89699C10.0177 6.03323 10.2989 6.26394 10.4967 6.55995C10.6944 6.85596 10.8 7.20397 10.8 7.55998C10.8 8.03737 10.6104 8.4952 10.2728 8.83277C9.93524 9.17034 9.4774 9.35998 9.00001 9.35998Z" fill="#266FE2"/>
</svg>
