<svg width="52" height="52" viewBox="0 0 52 52" fill="none" xmlns="http://www.w3.org/2000/svg">
<path d="M41.0832 48.6127H12.3882V23.3944H18.0326V17.7621H23.0262V8.60767H33.4929L41.0832 16.1989V48.6127Z" fill="#E6ECFF"/>
<path d="M39.6801 14.7949V44.7957C39.6801 45.4357 39.4258 46.0495 38.9733 46.502C38.5207 46.9546 37.9069 47.2088 37.2669 47.2088H12.3882V48.6128H41.0832V16.1989L39.6801 14.7949Z" fill="#BAC6E2"/>
<path d="M11.0858 2.69434H18.7566V10.3651H11.0858V2.69434Z" fill="#E6ECFF"/>
<path d="M1.45844 13.6736H9.12925V21.3444H1.45844V13.6736Z" fill="#E6ECFF"/>
<path d="M12.3882 44.248H38.3256H41.0832V48.6128H12.3882V44.248Z" fill="#5AA9E6"/>
<path d="M39.6801 44.248V44.7957C39.6801 45.4357 39.4258 46.0495 38.9733 46.502C38.5207 46.9546 37.9069 47.2088 37.2669 47.2088H12.3882V48.6128H41.0832V44.248H39.6801Z" fill="#4686C6"/>
<path d="M41.0832 16.1989H33.4929V8.60767L41.0832 16.1989Z" fill="#5AA9E6"/>
<path d="M41.9006 45.7974L41.0833 46.3718L40.2667 45.7974C37.5973 43.9211 35.4187 41.4301 33.9147 38.5346C32.4108 35.6391 31.6257 32.4242 31.6258 29.1614V26.7759L41.0833 23.6072L50.5416 26.7759V29.1614C50.5417 32.4242 49.7566 35.6391 48.2526 38.5346C46.7487 41.4301 44.57 43.9211 41.9006 45.7974Z" fill="#5AA9E6"/>
<path d="M49.2725 26.3501V28.552C49.2724 31.8148 48.4871 35.0297 46.983 37.9252C45.4789 40.8207 43.3002 43.3117 40.6307 45.1879L40.0229 45.6153C40.1042 45.6746 40.1854 45.7388 40.2667 45.7973L41.0833 46.3717L41.9006 45.7973C44.57 43.921 46.7487 41.43 48.2526 38.5345C49.7566 35.639 50.5417 32.4241 50.5416 29.1613V26.7758L49.2725 26.3501Z" fill="#4686C6"/>
<path d="M41.0833 38.4385L50.388 31.6493C50.4903 30.8239 50.5416 29.993 50.5416 29.1614V26.7759L41.0833 33.6773V38.4385Z" fill="#E6ECFF"/>
<path d="M49.2724 27.7062V28.5553C49.2694 29.9825 49.1161 31.4054 48.815 32.8006L50.388 31.6525C50.4384 31.2446 50.4766 30.8343 50.5026 30.4216V30.4118C50.5286 29.9974 50.5416 29.5806 50.5416 29.1614V26.7759L49.2724 27.7062Z" fill="#BAC6E2"/>
<path d="M16.0314 39.6003H23.9192V41.2253H16.0314V39.6003Z" fill="#BAC6E2"/>
</svg>
