<svg width="48" height="48" viewBox="0 0 48 48" fill="none" xmlns="http://www.w3.org/2000/svg">
<path d="M21.7598 35.8237H42.7313C43.1137 35.8237 43.4923 35.7484 43.8456 35.602C44.1989 35.4557 44.5199 35.2411 44.7903 34.9707C45.0606 34.7003 45.2751 34.3792 45.4214 34.0259C45.5676 33.6726 45.6429 33.2939 45.6428 32.9115V29.2627C45.6428 28.4905 45.336 27.7498 44.7901 27.2037C44.2441 26.6576 43.5035 26.3507 42.7313 26.3505H11.7158L21.7598 35.8237Z" fill="#E6ECFF"/>
<path d="M5.36099 21.042V19.7895C5.3607 19.4069 5.43581 19.0279 5.58203 18.6743C5.72825 18.3207 5.94272 17.9994 6.21318 17.7288C6.48363 17.4581 6.80478 17.2434 7.15825 17.0969C7.51173 16.9504 7.89061 16.875 8.27324 16.875H42.7312C43.5034 16.875 44.244 17.1817 44.79 17.7278C45.336 18.2738 45.6427 19.0143 45.6427 19.7865V23.436C45.6427 24.2082 45.336 24.9487 44.79 25.4947C44.244 26.0408 43.5034 26.3475 42.7312 26.3475H8.63774L5.36099 21.042Z" fill="#E6ECFF"/>
<path d="M42.7312 7.40479H8.27249C6.66452 7.40479 5.36099 8.70831 5.36099 10.3163V13.9665C5.36099 15.5745 6.66452 16.878 8.27249 16.878H42.7312C44.3392 16.878 45.6427 15.5745 45.6427 13.9665V10.3163C45.6427 8.70831 44.3392 7.40479 42.7312 7.40479Z" fill="#E6ECFF"/>
<path d="M44.0092 26.658C44.2091 27.0547 44.3144 27.4924 44.3167 27.9367V32.34C44.317 32.6235 44.2614 32.9043 44.1531 33.1664C44.0448 33.4284 43.8859 33.6666 43.6856 33.8672C43.4852 34.0678 43.2472 34.2269 42.9853 34.3355C42.7233 34.4441 42.4425 34.5 42.159 34.5H20.4337L21.7597 35.826H42.7312C43.1137 35.826 43.4923 35.7506 43.8456 35.6043C44.1989 35.4579 44.5199 35.2434 44.7903 34.9729C45.0606 34.7025 45.2751 34.3814 45.4213 34.0281C45.5676 33.6748 45.6428 33.2961 45.6427 32.9137V29.2627C45.6417 28.7191 45.488 28.1868 45.1992 27.7263C44.9104 27.2658 44.4981 26.8956 44.0092 26.658Z" fill="#BAC6E2"/>
<path d="M44.0092 17.1855C44.2087 17.5812 44.3139 18.0175 44.3167 18.4605V22.8675C44.3165 23.4398 44.0891 23.9885 43.6845 24.3931C43.2799 24.7977 42.7312 25.0251 42.159 25.0253H7.81949L8.63774 26.3505H42.7312C43.5034 26.3505 44.244 26.0438 44.79 25.4978C45.336 24.9518 45.6427 24.2112 45.6427 23.439V19.7895C45.6415 19.2461 45.4878 18.7139 45.199 18.2535C44.9102 17.7932 44.498 17.4231 44.0092 17.1855Z" fill="#BAC6E2"/>
<path d="M44.0092 7.71228C44.2091 8.10906 44.3144 8.54675 44.3167 8.99103V13.3943C44.3167 13.9666 44.0894 14.5154 43.6847 14.92C43.2801 15.3247 42.7313 15.552 42.159 15.552H6.94724C6.50427 15.5487 6.06801 15.4435 5.67224 15.2445C5.91018 15.7322 6.27997 16.1434 6.73968 16.4316C7.1994 16.7197 7.73066 16.8734 8.27324 16.875H42.7312C43.1136 16.875 43.4923 16.7997 43.8456 16.6533C44.1989 16.507 44.5199 16.2924 44.7902 16.022C45.0606 15.7516 45.2751 15.4305 45.4213 15.0772C45.5676 14.7239 45.6428 14.3452 45.6427 13.9628V10.317C45.6417 9.77346 45.488 9.24111 45.1992 8.7806C44.9104 8.32009 44.4981 7.94993 44.0092 7.71228Z" fill="#BAC6E2"/>
<path d="M45.6428 13.9658V10.317C45.6428 9.54479 45.336 8.80416 44.7901 8.25803C44.2441 7.7119 43.5035 7.40498 42.7313 7.40479H35.5373V16.875H42.7313C43.503 16.875 44.2433 16.5686 44.7892 16.0231C45.3352 15.4775 45.6422 14.7376 45.6428 13.9658Z" fill="#5AA9E6"/>
<path d="M44.0093 7.71228C44.2091 8.10906 44.3144 8.54675 44.3168 8.99103V13.3943C44.3168 13.9666 44.0894 14.5154 43.6848 14.92C43.2801 15.3247 42.7313 15.552 42.159 15.552H35.5373V16.875H42.7313C43.1137 16.875 43.4923 16.7997 43.8456 16.6533C44.1989 16.507 44.5199 16.2924 44.7903 16.022C45.0606 15.7516 45.2751 15.4305 45.4214 15.0772C45.5676 14.7239 45.6429 14.3452 45.6428 13.9628V10.317C45.6417 9.77346 45.488 9.24111 45.1992 8.7806C44.9104 8.32009 44.4981 7.94993 44.0093 7.71228Z" fill="#4686C6"/>
<path d="M1.67099 26.748H21.7597V35.814H1.67099V26.748Z" fill="#5AA9E6"/>
<path d="M21.7598 26.748H25.5015V33.7455H21.7598V26.748Z" fill="#4686C6"/>
<path d="M24.78 21.042H1.67099V26.748H21.7597L24.78 21.042Z" fill="#4686C6"/>
<path d="M6.56174 35.814H16.344V39.162H6.56174V35.814Z" fill="#4686C6"/>
<path d="M8.94 39.162H13.965V42.978H8.94V39.162Z" fill="#5AA9E6"/>
<path d="M45.6428 32.9115V29.2627C45.6428 28.4905 45.336 27.7498 44.7901 27.2037C44.2441 26.6576 43.5035 26.3507 42.7313 26.3505H35.5373V35.8237H42.7313C43.1137 35.8237 43.4923 35.7484 43.8456 35.602C44.1989 35.4557 44.5199 35.2411 44.7903 34.9707C45.0606 34.7003 45.2751 34.3792 45.4214 34.0259C45.5676 33.6726 45.6429 33.2939 45.6428 32.9115Z" fill="#5AA9E6"/>
<path d="M44.0093 26.658C44.2091 27.0547 44.3144 27.4924 44.3168 27.9367V32.34C44.3171 32.6235 44.2615 32.9043 44.1532 33.1664C44.0449 33.4284 43.886 33.6666 43.6856 33.8672C43.4852 34.0678 43.2472 34.2269 42.9853 34.3355C42.7233 34.4441 42.4426 34.5 42.159 34.5H35.5373V35.826H42.7313C43.1137 35.826 43.4923 35.7506 43.8456 35.6043C44.1989 35.4579 44.5199 35.2434 44.7903 34.9729C45.0606 34.7025 45.2751 34.3814 45.4214 34.0281C45.5676 33.6748 45.6429 33.2961 45.6428 32.9137V29.2627C45.6417 28.7191 45.488 28.1868 45.1992 27.7263C44.9104 27.2658 44.4981 26.8956 44.0093 26.658Z" fill="#4686C6"/>
<path d="M45.6428 23.439V19.7895C45.6432 19.4069 45.5681 19.028 45.422 18.6744C45.2759 18.3208 45.0615 17.9995 44.7911 17.7288C44.5207 17.4581 44.1996 17.2434 43.8461 17.0969C43.4927 16.9504 43.1139 16.875 42.7313 16.875H35.5373V26.3475H42.7313C43.5029 26.3475 44.243 26.0412 44.7889 25.4958C45.3349 24.9504 45.642 24.2107 45.6428 23.439Z" fill="#5AA9E6"/>
<path d="M44.0093 17.1855C44.2087 17.5812 44.3139 18.0175 44.3168 18.4605V22.8675C44.3166 23.4398 44.0892 23.9885 43.6846 24.3931C43.2799 24.7977 42.7312 25.0251 42.159 25.0253H35.5373V26.3505H42.7313C43.5034 26.3505 44.244 26.0438 44.79 25.4978C45.336 24.9518 45.6428 24.2112 45.6428 23.439V19.7895C45.6416 19.2461 45.4878 18.7139 45.199 18.2535C44.9102 17.7932 44.498 17.4231 44.0093 17.1855Z" fill="#4686C6"/>
<path d="M38.6017 30.3367H42.579V31.8367H38.6017V30.3367Z" fill="#E6ECFF"/>
<path d="M38.6017 20.8643H42.579V22.3643H38.6017V20.8643Z" fill="#E6ECFF"/>
<path d="M38.6017 11.3917H42.579V12.8917H38.6017V11.3917Z" fill="#E6ECFF"/>
<path d="M5.36399 33.5482C5.88052 33.5482 6.29924 33.1295 6.29924 32.613C6.29924 32.0965 5.88052 31.6777 5.36399 31.6777C4.84747 31.6777 4.42874 32.0965 4.42874 32.613C4.42874 33.1295 4.84747 33.5482 5.36399 33.5482Z" fill="#E6ECFF"/>
<path d="M8.63773 33.5482C9.15426 33.5482 9.57298 33.1295 9.57298 32.613C9.57298 32.0965 9.15426 31.6777 8.63773 31.6777C8.12121 31.6777 7.70248 32.0965 7.70248 32.613C7.70248 33.1295 8.12121 33.5482 8.63773 33.5482Z" fill="#E6ECFF"/>
<path d="M10.2915 13.2945C10.9282 13.2945 11.4443 12.7784 11.4443 12.1418C11.4443 11.5051 10.9282 10.989 10.2915 10.989C9.65487 10.989 9.13876 11.5051 9.13876 12.1418C9.13876 12.7784 9.65487 13.2945 10.2915 13.2945Z" fill="#5AA9E6"/>
<path d="M15.1185 13.2945C15.7552 13.2945 16.2713 12.7784 16.2713 12.1418C16.2713 11.5051 15.7552 10.989 15.1185 10.989C14.4819 10.989 13.9658 11.5051 13.9658 12.1418C13.9658 12.7784 14.4819 13.2945 15.1185 13.2945Z" fill="#5AA9E6"/>
</svg>
