<svg width="20" height="20" viewBox="0 0 20 20" fill="none" xmlns="http://www.w3.org/2000/svg">
<g clip-path="url(#clip0_403_14)">
<path d="M19.45 16.8L14.862 12.21C14.178 13.274 13.274 14.178 12.21 14.862L16.8 19.45C17.532 20.184 18.72 20.184 19.45 19.45C20.184 18.72 20.184 17.532 19.45 16.8ZM15 7.5C15 3.358 11.642 0 7.5 0C3.358 0 0 3.358 0 7.5C0 11.642 3.358 15 7.5 15C11.642 15 15 11.642 15 7.5ZM7.5 13.124C4.398 13.124 1.874 10.602 1.874 7.5C1.874 4.398 4.398 1.874 7.5 1.874C10.602 1.874 13.126 4.398 13.126 7.5C13.126 10.602 10.602 13.124 7.5 13.124ZM3.126 7.5H4.376C4.376 5.776 5.776 4.376 7.5 4.376V3.126C5.088 3.126 3.126 5.088 3.126 7.5Z" fill="white"/>
</g>
<defs>
<clipPath id="clip0_403_14">
<rect width="20" height="20" fill="white"/>
</clipPath>
</defs>
</svg>
