<svg width="15" height="15" viewBox="0 0 15 15" fill="none" xmlns="http://www.w3.org/2000/svg">
<g clip-path="url(#clip0_400_261)">
<path d="M14.345 0.976248C13.6681 0.611777 12.9131 1.31469 12.4705 1.73123C11.4553 2.72051 10.5962 3.86599 9.63287 4.90734C8.56549 6.05282 7.5762 7.1983 6.48279 8.31779C5.85798 8.9426 5.18111 9.61948 4.76457 10.4005C3.82735 9.48926 3.02031 8.49998 1.97896 7.69298C1.22398 7.12024 -0.0256333 6.7037 0.000400376 8.08349C0.0524678 9.87986 1.64052 11.8063 2.81204 13.0299C3.30668 13.5506 3.95752 14.0973 4.7125 14.1233C5.62368 14.1754 6.56089 13.082 7.1076 12.4832C8.07089 11.4418 8.8519 10.2703 9.737 9.20294C10.8825 7.79712 12.054 6.41729 13.1734 4.98544C13.8764 4.10029 16.0892 1.91342 14.345 0.976248ZM1.14584 7.97935C1.11981 7.97935 1.09377 7.97935 1.04171 8.00534C0.937571 7.97935 0.85947 7.95328 0.755335 7.90121C0.833436 7.84914 0.963605 7.87518 1.14584 7.97935Z" fill="#D15F5F"/>
</g>
<defs>
<clipPath id="clip0_400_261">
<rect width="15" height="15" fill="white"/>
</clipPath>
</defs>
</svg>
