<svg width="52" height="52" viewBox="0 0 52 52" fill="none" xmlns="http://www.w3.org/2000/svg">
<path d="M40.7152 23.8257V16.6684V9.75321L33.6278 2.66577H23.855H13.9222V16.4718V23.8257H40.7152Z" fill="#E6ECFF"/>
<path d="M33.6277 2.66577V9.75321H40.7152" fill="#5AA9E6"/>
<path d="M9.25356 23.8257H45.3846V33.1093H9.25356V23.8257Z" fill="#5AA9E6"/>
<path d="M44.0489 23.8257V30.3817C44.0489 30.7511 43.9022 31.1053 43.641 31.3665C43.3798 31.6276 43.0256 31.7744 42.6562 31.7744H9.25356V33.1093H45.3838V23.8257H44.0489Z" fill="#4686C6"/>
<path d="M39.8994 30.0487C40.7727 30.0487 41.4806 29.3408 41.4806 28.4676C41.4806 27.5944 40.7727 26.8865 39.8994 26.8865C39.0262 26.8865 38.3183 27.5944 38.3183 28.4676C38.3183 29.3408 39.0262 30.0487 39.8994 30.0487Z" fill="#E6ECFF"/>
<path d="M12.6068 33.1094H42.0306V36.8526H12.6068V33.1094Z" fill="#E6ECFF"/>
<path d="M17.0544 5.77368H24.2442V7.39868H17.0544V5.77368Z" fill="#BAC6E2"/>
<path d="M18.7712 13.0422H35.8662V14.6672H18.7712V13.0422Z" fill="#BAC6E2"/>
<path d="M18.7712 17.9912H35.8662V19.6162H18.7712V17.9912Z" fill="#BAC6E2"/>
<path d="M33.0801 27.655H35.8662V29.28H33.0801V27.655Z" fill="#E6ECFF"/>
<path d="M28.1474 27.655H30.9335V29.28H28.1474V27.655Z" fill="#E6ECFF"/>
<path d="M26.5062 44.0342H28.1312V49.6494H26.5062V44.0342Z" fill="#5AA9E6"/>
<path d="M26.5062 38.4189H28.1312V41.8144H26.5062V38.4189Z" fill="#5AA9E6"/>
<path d="M29.8155 47.2126H31.4405V49.6501H29.8155V47.2126Z" fill="#5AA9E6"/>
<path d="M29.8155 38.4189H31.4405V45.9931H29.8155V38.4189Z" fill="#5AA9E6"/>
<path d="M33.1256 41.4658H34.7506V49.6493H33.1256V41.4658Z" fill="#5AA9E6"/>
<path d="M33.1256 38.4189H34.7506V40.1171H33.1256V38.4189Z" fill="#5AA9E6"/>
<path d="M36.4357 43.4688H38.0607V49.6494H36.4357V43.4688Z" fill="#5AA9E6"/>
<path d="M36.4357 38.4189H38.0607V41.8144H36.4357V38.4189Z" fill="#5AA9E6"/>
<path d="M39.7451 41.8145H41.3701V49.6502H39.7451V41.8145Z" fill="#5AA9E6"/>
<path d="M39.7451 38.4189H41.3701V40.5518H39.7451V38.4189Z" fill="#5AA9E6"/>
<path d="M23.1961 46.5593H24.8211V49.6501H23.1961V46.5593Z" fill="#5AA9E6"/>
<path d="M23.1961 38.4189H24.8211V44.5127H23.1961V38.4189Z" fill="#5AA9E6"/>
<path d="M19.8867 45.166H21.5117V49.6502H19.8867V45.166Z" fill="#5AA9E6"/>
<path d="M19.8867 38.4189H21.5117V43.2939H19.8867V38.4189Z" fill="#5AA9E6"/>
<path d="M16.5766 41.4658H18.2016V49.6493H16.5766V41.4658Z" fill="#5AA9E6"/>
<path d="M16.5766 38.4189H18.2016V40.2909H16.5766V38.4189Z" fill="#5AA9E6"/>
<path d="M13.2673 38.4189H14.8923V49.6493H13.2673V38.4189Z" fill="#5AA9E6"/>
</svg>
