<svg width="52" height="52" viewBox="0 0 52 52" fill="none" xmlns="http://www.w3.org/2000/svg">
<path d="M39.8759 26.087H33.8349L34.6864 24.462H39.0634V20.3687C39.0634 20.1532 39.149 19.9465 39.3014 19.7941C39.4537 19.6418 39.6604 19.5562 39.8759 19.5562H46.0688V21.1812H40.6884V25.2745C40.6884 25.49 40.6028 25.6967 40.4504 25.8491C40.298 26.0014 40.0914 26.087 39.8759 26.087Z" fill="#E6ECFF"/>
<path d="M27.5381 32.2361H38.2939V33.8611H27.5381V32.2361Z" fill="#E6ECFF"/>
<path d="M25.1558 33.9634H26.7808V42.0323H25.1558V33.9634Z" fill="#E6ECFF"/>
<path d="M18.1074 26.087H12.1241C11.9086 26.087 11.702 26.0014 11.5496 25.8491C11.3972 25.6967 11.3116 25.49 11.3116 25.2745V21.1812H5.93125V19.5562H12.1217C12.3372 19.5562 12.5438 19.6418 12.6962 19.7941C12.8486 19.9465 12.9342 20.1532 12.9342 20.3687V24.462H17.3111L18.1074 26.087Z" fill="#E6ECFF"/>
<path d="M13.4184 32.2361H24.0557V33.8611H13.4184V32.2361Z" fill="#E6ECFF"/>
<path d="M26.8832 34.8643L25.9683 35.507L25.0534 34.8643C22.0637 32.7629 19.6235 29.973 17.9389 26.73C16.2544 23.4871 15.375 19.8864 15.3749 16.2321V13.5606L25.9683 10.0083L36.5625 13.5606V16.2321C36.5622 19.8865 35.6826 23.4871 33.9979 26.7301C32.3133 29.973 29.873 32.7629 26.8832 34.8643Z" fill="#5AA9E6"/>
<path d="M35.0805 13.0642V15.6228C35.0804 19.277 34.2011 22.8776 32.5167 26.1205C30.8323 29.3635 28.3923 32.1535 25.4028 34.255L24.8032 34.6767C24.8844 34.7376 24.9657 34.8035 25.0534 34.8644L25.9683 35.5071L26.8832 34.8644C29.873 32.763 32.3133 29.9731 33.998 26.7302C35.6826 23.4872 36.5622 19.8866 36.5625 16.2321V13.5606L35.0805 13.0642Z" fill="#4686C6"/>
<path d="M25.9683 26.6223L36.3886 19.0189C36.5038 18.0944 36.5618 17.1637 36.5625 16.232V13.5605L25.9683 21.2874V26.6223Z" fill="#E6ECFF"/>
<path d="M35.0805 14.6404V15.6227C35.0776 17.2087 34.9088 18.79 34.5768 20.3409L36.3886 19.0189C36.4428 18.5639 36.4853 18.1062 36.5162 17.6458V17.6312C36.5471 17.1675 36.5625 16.7011 36.5625 16.232V13.5605L35.0805 14.6404Z" fill="#BAC6E2"/>
<path d="M47.9383 22.8053C49.2841 22.8053 50.375 21.7143 50.375 20.3686C50.375 19.0228 49.2841 17.9319 47.9383 17.9319C46.5926 17.9319 45.5016 19.0228 45.5016 20.3686C45.5016 21.7143 46.5926 22.8053 47.9383 22.8053Z" fill="#5AA9E6"/>
<path d="M4.06169 22.8053C5.40743 22.8053 6.49837 21.7143 6.49837 20.3686C6.49837 19.0228 5.40743 17.9319 4.06169 17.9319C2.71594 17.9319 1.625 19.0228 1.625 20.3686C1.625 21.7143 2.71594 22.8053 4.06169 22.8053Z" fill="#5AA9E6"/>
<path d="M40.2285 35.3128C41.5742 35.3128 42.6652 34.2219 42.6652 32.8761C42.6652 31.5304 41.5742 30.4395 40.2285 30.4395C38.8828 30.4395 37.7918 31.5304 37.7918 32.8761C37.7918 34.2219 38.8828 35.3128 40.2285 35.3128Z" fill="#5AA9E6"/>
<path d="M11.4839 35.3128C12.8296 35.3128 13.9206 34.2219 13.9206 32.8761C13.9206 31.5304 12.8296 30.4395 11.4839 30.4395C10.1381 30.4395 9.04719 31.5304 9.04719 32.8761C9.04719 34.2219 10.1381 35.3128 11.4839 35.3128Z" fill="#5AA9E6"/>
<path d="M25.9683 46.0889C27.3141 46.0889 28.405 44.998 28.405 43.6523C28.405 42.3065 27.3141 41.2156 25.9683 41.2156C24.6226 41.2156 23.5316 42.3065 23.5316 43.6523C23.5316 44.998 24.6226 46.0889 25.9683 46.0889Z" fill="#5AA9E6"/>
<path d="M25.7099 12.6052L15.3749 16.0713V16.2338C15.3749 16.7482 15.3969 17.2592 15.431 17.7687L26.2267 14.1482L25.7099 12.6052Z" fill="#4686C6"/>
</svg>
