<svg width="52" height="52" viewBox="0 0 52 52" fill="none" xmlns="http://www.w3.org/2000/svg">
<path d="M40.395 49.4463H47.6173V44.0342L38.0071 44.4925L40.395 49.4463Z" fill="#5AA9E6"/>
<path d="M38.0071 44.4925L38.692 45.9144H47.6173V44.1431L38.0071 44.4925Z" fill="#4686C6"/>
<path d="M11.7398 49.4463H4.51831V44.0781L14.1286 44.4925L11.7398 49.4463Z" fill="#5AA9E6"/>
<path d="M46.6659 2.55371H5.46973C4.29451 2.55371 3.3418 3.50642 3.3418 4.68165V42.3654C3.3418 43.5406 4.29451 44.4933 5.46973 44.4933H46.6659C47.8412 44.4933 48.7939 43.5406 48.7939 42.3654V4.68165C48.7939 3.50642 47.8412 2.55371 46.6659 2.55371Z" fill="#5AA9E6"/>
<path d="M47.2394 2.64227C47.2954 2.82844 47.3252 3.02151 47.328 3.2159V41.8438C47.328 42.1586 47.2029 42.4605 46.9803 42.6832C46.7577 42.9058 46.4558 43.0308 46.1409 43.0308H4.00388C3.80922 43.0281 3.61589 42.9983 3.42944 42.9423C3.55399 43.3878 3.82073 43.7803 4.18905 44.0602C4.55736 44.3401 5.00705 44.4919 5.46963 44.4925H46.6634C47.2275 44.4925 47.7686 44.2684 48.1675 43.8695C48.5664 43.4706 48.7905 42.9295 48.7905 42.3654V4.68165C48.7899 4.21904 48.638 3.76932 48.358 3.4011C48.0779 3.03289 47.6851 2.76639 47.2394 2.64227Z" fill="#4686C6"/>
<path d="M3.3418 7.95197H41.4253V39.0951H3.3418V7.95197Z" fill="#E6ECFF"/>
<path d="M46.666 2.55371H41.4246V44.4925H46.666C47.2301 44.4925 47.7712 44.2684 48.1701 43.8695C48.569 43.4706 48.7931 42.9295 48.7931 42.3654V4.68165C48.7932 4.40224 48.7383 4.12555 48.6314 3.86738C48.5246 3.60922 48.3679 3.37463 48.1704 3.17702C47.9729 2.97941 47.7383 2.82266 47.4802 2.71571C47.2221 2.60876 46.9454 2.55371 46.666 2.55371Z" fill="#E6ECFF"/>
<path d="M47.2395 2.64227C47.2955 2.82844 47.3253 3.02151 47.328 3.2159V41.8438C47.328 42.1586 47.203 42.4605 46.9803 42.6832C46.7577 42.9058 46.4558 43.0308 46.141 43.0308H41.4285V44.4933H46.6699C47.2341 44.4933 47.7751 44.2692 48.174 43.8703C48.5729 43.4714 48.797 42.9304 48.797 42.3662V4.68165C48.796 4.21819 48.6432 3.76783 48.3619 3.3995C48.0806 3.03118 47.6863 2.7652 47.2395 2.64227Z" fill="#BAC6E2"/>
<path d="M37.6235 13.16H45.2261V17.8953H37.6235V13.16Z" fill="#5AA9E6"/>
<path d="M37.6235 29.0355H45.2261V33.7708H37.6235V29.0355Z" fill="#5AA9E6"/>
<path d="M43.9488 13.1625V15.3562C43.949 15.5225 43.9163 15.6871 43.8527 15.8408C43.7891 15.9944 43.6959 16.134 43.5783 16.2516C43.4608 16.3691 43.3212 16.4624 43.1675 16.526C43.0139 16.5895 42.8492 16.6222 42.683 16.6221H37.6235V17.8994H45.2261V13.1625H43.9488Z" fill="#4686C6"/>
<path d="M43.9488 29.0355V31.2293C43.9488 31.565 43.8155 31.887 43.5781 32.1244C43.3407 32.3618 43.0187 32.4951 42.683 32.4951H37.6235V33.7716H45.2261V29.0355H43.9488Z" fill="#4686C6"/>
<path d="M18.061 39.0951H16.436V33.9682C16.436 33.7527 16.5216 33.546 16.674 33.3937C16.8264 33.2413 17.033 33.1557 17.2485 33.1557H21.4963V27.6689H23.1213V33.9682C23.1213 34.1837 23.0357 34.3903 22.8833 34.5427C22.7309 34.6951 22.5243 34.7807 22.3088 34.7807H18.061V39.0951Z" fill="#BAC6E2"/>
<path d="M9.77271 30.7881H11.3977V39.0951H9.77271V30.7881Z" fill="#BAC6E2"/>
<path d="M40.6121 17.8953H42.2371V29.0355H40.6121V17.8953Z" fill="#BAC6E2"/>
<path d="M12.5937 22.1065H8.8562C8.64071 22.1065 8.43405 22.0209 8.28168 21.8685C8.1293 21.7162 8.0437 21.5095 8.0437 21.294V13.1016C8.0437 12.8861 8.1293 12.6794 8.28168 12.527C8.43405 12.3747 8.64071 12.2891 8.8562 12.2891H12.5937V13.9141H9.6687V20.4815H12.5937V22.1065Z" fill="#BAC6E2"/>
<path d="M22.3087 28.1661C23.6966 28.1661 24.8218 27.041 24.8218 25.6531C24.8218 24.2652 23.6966 23.14 22.3087 23.14C20.9208 23.14 19.7957 24.2652 19.7957 25.6531C19.7957 27.041 20.9208 28.1661 22.3087 28.1661Z" fill="#5AA9E6"/>
<path d="M10.5861 31.7435C11.974 31.7435 13.0991 30.6184 13.0991 29.2305C13.0991 27.8425 11.974 26.7174 10.5861 26.7174C9.19813 26.7174 8.073 27.8425 8.073 29.2305C8.073 30.6184 9.19813 31.7435 10.5861 31.7435Z" fill="#5AA9E6"/>
<path d="M5.46975 44.4925C5.1386 44.4905 4.81262 44.4103 4.51831 44.2585V45.9144H13.4428L14.1286 44.4925H5.46975Z" fill="#4686C6"/>
</svg>
