<svg width="52" height="52" viewBox="0 0 52 52" fill="none" xmlns="http://www.w3.org/2000/svg">
<path d="M2.34082 6.46191H49.6584V45.5391H2.34082V6.46191Z" fill="#E6ECFF"/>
<path d="M2.34082 6.46191H49.6584V14.3139H2.34082V6.46191Z" fill="#5AA9E6"/>
<path d="M48.1463 6.46191V11.6822C48.1463 11.9787 48.0285 12.2631 47.8189 12.4728C47.6092 12.6824 47.3248 12.8002 47.0283 12.8002H2.34082V14.3131H49.6592V6.46191H48.1463Z" fill="#4686C6"/>
<path d="M7.69193 19.1611H27.0497V25.1785H7.69193V19.1611Z" fill="#5AA9E6"/>
<path d="M25.7148 19.1611V22.6273C25.7148 22.9505 25.5864 23.2605 25.3578 23.489C25.1293 23.7176 24.8193 23.846 24.496 23.846H7.69193V25.1801H27.0489V19.1611H25.7148Z" fill="#4686C6"/>
<path d="M22.49 19.1611H27.0489V25.1785H22.49V19.1611Z" fill="#E6ECFF"/>
<path d="M25.7148 19.1611V22.6273C25.7148 22.9505 25.5864 23.2605 25.3578 23.489C25.1293 23.7176 24.8193 23.846 24.4961 23.846H22.49V25.1801H27.0489V19.1611H25.7148Z" fill="#BAC6E2"/>
<path d="M41.9932 9.57446H45.647V11.1995H41.9932V9.57446Z" fill="#E6ECFF"/>
<path d="M26 9.57446H39.8271V11.1995H26V9.57446Z" fill="#E6ECFF"/>
<path d="M19.8494 11.717C20.5839 11.717 21.1794 11.1215 21.1794 10.3869C21.1794 9.65237 20.5839 9.05688 19.8494 9.05688C19.1148 9.05688 18.5193 9.65237 18.5193 10.3869C18.5193 11.1215 19.1148 11.717 19.8494 11.717Z" fill="#E6ECFF"/>
<path d="M13.7702 11.717C14.5048 11.717 15.1003 11.1215 15.1003 10.3869C15.1003 9.65237 14.5048 9.05688 13.7702 9.05688C13.0357 9.05688 12.4402 9.65237 12.4402 10.3869C12.4402 11.1215 13.0357 11.717 13.7702 11.717Z" fill="#E6ECFF"/>
<path d="M7.69194 11.717C8.42651 11.717 9.022 11.1215 9.022 10.3869C9.022 9.65237 8.42651 9.05688 7.69194 9.05688C6.95737 9.05688 6.36188 9.65237 6.36188 10.3869C6.36188 11.1215 6.95737 11.717 7.69194 11.717Z" fill="#E6ECFF"/>
<path d="M17.1072 29.6133H27.4479V31.2383H17.1072V29.6133Z" fill="#BAC6E2"/>
<path d="M13.7703 34.0576H27.4471V35.6826H13.7703V34.0576Z" fill="#BAC6E2"/>
<path d="M17.1072 38.5027H27.4479V40.1277H17.1072V38.5027Z" fill="#BAC6E2"/>
<path d="M37.9437 41.1522C36.7036 41.1509 35.5146 40.6577 34.6376 39.7808C33.7607 38.9038 33.2675 37.7148 33.2662 36.4747V33.1255C33.2659 32.9671 33.312 32.8121 33.3986 32.6796C33.4853 32.547 33.6089 32.4426 33.7541 32.3794C33.8993 32.3161 34.0598 32.2966 34.2159 32.3234C34.3721 32.3501 34.517 32.422 34.6328 32.53L37.4871 35.186L36.3789 36.3764L34.8912 34.9951V36.4779C34.8846 36.8829 34.9586 37.2852 35.109 37.6613C35.2595 38.0374 35.4832 38.3798 35.7673 38.6685C36.0514 38.9573 36.3901 39.1866 36.7637 39.3431C37.1373 39.4997 37.5383 39.5803 37.9433 39.5803C38.3484 39.5803 38.7494 39.4997 39.123 39.3431C39.4966 39.1866 39.8353 38.9573 40.1194 38.6685C40.4034 38.3798 40.6272 38.0374 40.7776 37.6613C40.928 37.2852 41.0021 36.8829 40.9955 36.4779V23.8159H42.6205V36.4747C42.6192 37.7147 42.1261 38.9036 41.2493 39.7805C40.3726 40.6574 39.1838 41.1507 37.9437 41.1522V41.1522Z" fill="#BAC6E2"/>
<path d="M41.8088 24.366C42.9033 24.366 43.7905 23.4787 43.7905 22.3843C43.7905 21.2898 42.9033 20.4026 41.8088 20.4026C40.7144 20.4026 39.8271 21.2898 39.8271 22.3843C39.8271 23.4787 40.7144 24.366 41.8088 24.366Z" fill="#5AA9E6"/>
</svg>
