<svg width="52" height="52" viewBox="0 0 52 52" fill="none" xmlns="http://www.w3.org/2000/svg">
<path d="M9.32344 35.4081C7.25475 35.4081 5.27079 34.5863 3.808 33.1235C2.34522 31.6607 1.52344 29.6767 1.52344 27.6081C1.52344 25.5394 2.34522 23.5554 3.808 22.0926C5.27079 20.6298 7.25475 19.8081 9.32344 19.8081H12.6799C12.6806 17.5588 13.4711 15.3811 14.9135 13.6552C16.3559 11.9293 18.3586 10.7646 20.572 10.3645C22.7854 9.96443 25.069 10.3543 27.0244 11.466C28.9797 12.5778 30.4826 14.3409 31.2707 16.4476L40.0319 30.6419L38.675 34.6077C37.6038 35.136 36.4252 35.4099 35.2308 35.4081H9.32344Z" fill="#E6ECFF"/>
<path d="M20.0159 39.3608V31.4543H15.3928V39.3608H13.9189L17.7044 44.989L21.4898 39.3608H20.0159Z" fill="#5AA9E6"/>
<path d="M28.6926 30.5166V38.4231H24.0695V30.5166H22.5956L26.3811 24.8884L30.1665 30.5166H28.6926Z" fill="#5AA9E6"/>
<path d="M41.6756 35.6322L40.8444 36.2172L40.0124 35.6322C37.2943 33.7218 35.076 31.1853 33.5446 28.2371C32.0132 25.2889 31.2138 22.0154 31.2138 18.6932V16.2646L40.8444 13.0349L50.4741 16.2646V18.6932C50.4742 22.0154 49.6747 25.2889 48.1434 28.2371C46.612 31.1853 44.3936 33.7218 41.6756 35.6322Z" fill="#5AA9E6"/>
<path d="M49.0815 15.7974V17.8814C49.0815 21.2037 48.2821 24.4771 46.7507 27.4254C45.2193 30.3736 43.0009 32.91 40.2829 34.8204L39.5842 35.3079C39.728 35.4136 39.8661 35.5257 40.0124 35.628L40.8444 36.2131L41.6755 35.628C44.393 33.718 46.611 31.1823 48.1424 28.2348C49.6738 25.2873 50.4735 22.0147 50.4741 18.6931V16.2645L49.0815 15.7974Z" fill="#4686C6"/>
<path d="M40.8444 28.1393L50.3181 21.2266C50.422 20.3861 50.4741 19.5401 50.4741 18.6932V16.2646L40.8444 23.2911V28.1393Z" fill="#E6ECFF"/>
<path d="M49.0815 17.2803V17.8815C49.0796 19.442 48.9011 20.9973 48.5493 22.5176L50.3181 21.2266C50.3685 20.8171 50.4067 20.4054 50.4327 19.9916V19.9656C50.4587 19.5439 50.4717 19.119 50.4717 18.6932V16.2646L49.0815 17.2803Z" fill="#BAC6E2"/>
<path d="M13.6248 23.6137C12.5775 22.2527 12.6799 19.7852 12.6799 19.812H11.0549C11.0411 20.4953 11.0841 22.9807 12.3354 24.6057L13.6248 23.6137Z" fill="#BAC6E2"/>
<path d="M17.2892 19.266L15.6804 19.0409C15.8329 17.5539 16.4726 16.1589 17.5001 15.0731C18.5275 13.9873 19.885 13.2716 21.3614 13.0374L21.5515 14.6518L21.4565 13.8442L21.5548 14.651C20.4339 14.841 19.4075 15.3969 18.6358 16.2318C17.8641 17.0667 17.3906 18.1336 17.2892 19.266Z" fill="#BAC6E2"/>
<path d="M9.47864 30.6418H12.008V32.2668H9.47864V30.6418Z" fill="#BAC6E2"/>
</svg>
