<svg width="15" height="15" viewBox="0 0 15 15" fill="none" xmlns="http://www.w3.org/2000/svg">
<g clip-path="url(#clip0_207_59)">
<path d="M14.345 0.976248C13.6681 0.611777 12.9131 1.31469 12.4706 1.73123C11.4553 2.72051 10.5962 3.86599 9.6329 4.90734C8.56552 6.05282 7.57623 7.1983 6.48282 8.31779C5.85801 8.9426 5.18114 9.61948 4.7646 10.4005C3.82738 9.48926 3.02034 8.49998 1.97899 7.69298C1.22401 7.12024 -0.0256028 6.7037 0.000430894 8.08349C0.0524983 9.87986 1.64055 11.8063 2.81207 13.0299C3.30671 13.5506 3.95755 14.0973 4.71253 14.1233C5.62371 14.1754 6.56092 13.082 7.10763 12.4832C8.07092 11.4418 8.85193 10.2703 9.73703 9.20294C10.8825 7.79712 12.054 6.41729 13.1735 4.98544C13.8764 4.10029 16.0893 1.91342 14.345 0.976248ZM1.14587 7.97935C1.11984 7.97935 1.0938 7.97935 1.04174 8.00534C0.937601 7.97935 0.8595 7.95328 0.755365 7.90121C0.833467 7.84914 0.963635 7.87518 1.14587 7.97935Z" fill="#266FE2"/>
</g>
<defs>
<clipPath id="clip0_207_59">
<rect width="15" height="15" fill="white"/>
</clipPath>
</defs>
</svg>
