<svg width="18" height="20" viewBox="0 0 18 20" fill="none" xmlns="http://www.w3.org/2000/svg">
<path d="M15.9919 7.50438L4.1875 0.684375C3.85007 0.484739 3.4658 0.377998 3.07375 0.375C2.45745 0.375 1.8664 0.619823 1.43061 1.05561C0.994823 1.4914 0.75 2.08245 0.75 2.69875V17.3356C0.750078 17.7446 0.859712 18.1461 1.0675 18.4984C1.27529 18.8506 1.57365 19.1408 1.93156 19.3387C2.28947 19.5366 2.69386 19.635 3.10268 19.6237C3.5115 19.6124 3.90983 19.4918 4.25625 19.2744L16.0744 11.8081C16.4418 11.5782 16.7435 11.2569 16.9499 10.8757C17.1562 10.4945 17.2604 10.0663 17.252 9.63288C17.2437 9.19947 17.1233 8.77559 16.9024 8.40257C16.6816 8.02955 16.3679 7.7201 15.9919 7.50438Z" fill="white"/>
</svg>
