<svg width="18" height="18" viewBox="0 0 18 18" fill="none" xmlns="http://www.w3.org/2000/svg">
<path d="M13.2948 2.76137C13.2948 2.52917 13.2984 2.31137 13.2948 2.08997C13.2912 1.66697 13.023 1.31237 12.609 1.17737C12.2022 1.04417 11.7612 1.18097 11.5038 1.51397C11.3544 1.70477 11.2914 1.92437 11.2914 2.16377V2.75057C11.2914 2.84417 11.214 2.91977 11.1204 2.91977H10.0602C9.9648 2.91977 9.8892 2.84417 9.8892 2.75057C9.8892 2.54897 9.891 2.35457 9.8892 2.15837C9.882 1.69757 9.6408 1.33757 9.243 1.18997C8.5896 0.948765 7.9002 1.40417 7.884 2.09537C7.8786 2.31137 7.8804 2.52917 7.8822 2.74697C7.8822 2.84057 7.8048 2.91617 7.7112 2.91617H6.6222C6.5268 2.91617 6.4512 2.84057 6.4512 2.74697C6.4584 2.47157 6.471 2.20337 6.4422 1.94057C6.4008 1.55897 6.1524 1.30337 5.787 1.17917C5.427 1.05857 5.094 1.12697 4.8024 1.37357C4.5432 1.59137 4.455 1.87937 4.4586 2.20337C4.4604 2.38697 4.4604 2.57057 4.4604 2.76317C4.4604 2.85677 4.383 2.93237 4.2894 2.93237H1.3266C1.2312 2.93237 1.1556 3.00797 1.1556 3.10157V16.7042C1.1556 16.7978 1.233 16.8734 1.3266 16.8734H16.6698C16.7652 16.8734 16.8408 16.7978 16.8408 16.7042V3.09977C16.8408 3.00617 16.7634 2.93057 16.6698 2.93057H13.4658C13.3704 2.93057 13.293 2.85497 13.2948 2.76137ZM5.859 16.2038H2.0106C1.9152 16.2038 1.8396 16.1282 1.8396 16.0346V13.3436C1.8396 13.25 1.917 13.1744 2.0106 13.1744H5.859C5.9544 13.1744 6.03 13.25 6.03 13.3436V16.0328C6.03 16.1282 5.9544 16.2038 5.859 16.2038ZM5.8608 12.4832H2.0106C1.9152 12.4832 1.8396 12.4076 1.8396 12.314V9.46996C1.8396 9.37637 1.917 9.30077 2.0106 9.30077H5.8608C5.9562 9.30077 6.0318 9.37637 6.0318 9.46996V12.314C6.0318 12.4076 5.9544 12.4832 5.8608 12.4832ZM5.8626 8.61317H2.0106C1.9152 8.61317 1.8396 8.53757 1.8396 8.44397V5.71337C1.8396 5.61977 1.917 5.54417 2.0106 5.54417H5.8626C5.958 5.54417 6.0336 5.61977 6.0336 5.71337V8.44397C6.0336 8.53757 5.958 8.61317 5.8626 8.61317ZM10.989 16.2056H6.9174C6.822 16.2056 6.7464 16.13 6.7464 16.0364V13.3526C6.7464 13.259 6.8238 13.1834 6.9174 13.1834H10.989C11.0844 13.1834 11.16 13.259 11.16 13.3526V16.0382C11.1618 16.13 11.0844 16.2056 10.989 16.2056ZM11.169 12.3914C11.1654 12.4436 11.088 12.485 10.9926 12.485H6.9174C6.822 12.485 6.7464 12.4094 6.7464 12.3158V9.46996C6.7464 9.37637 6.7914 9.29897 6.8436 9.29537L6.9408 9.28997C8.2818 9.28997 9.621 9.29357 10.9602 9.28637C11.1222 9.28637 11.178 9.32237 11.1762 9.49337C11.169 10.4276 11.1726 11.3654 11.1708 12.2996C11.1726 12.3302 11.1708 12.359 11.169 12.3914ZM11.1744 8.51237C11.1744 8.56457 11.097 8.60777 11.0034 8.60777H6.9138C6.8184 8.60777 6.7428 8.53217 6.7428 8.43857V5.70257C6.7428 5.60896 6.7878 5.53337 6.8436 5.53337H6.9444C8.2854 5.53337 9.6246 5.53517 10.9638 5.52977C11.1258 5.52797 11.1798 5.56757 11.1762 5.73677C11.169 6.63137 11.1726 7.52237 11.1726 8.41697V8.51237H11.1744ZM12.0348 9.30617H15.9786C16.074 9.30617 16.1496 9.38177 16.1496 9.47537V12.3176C16.1496 12.4112 16.0722 12.4868 15.9786 12.4868H12.0348C11.9394 12.4868 11.8638 12.4112 11.8638 12.3176V9.47357C11.8638 9.38177 11.9412 9.30617 12.0348 9.30617ZM15.9804 16.2038H12.0348C11.9394 16.2038 11.8638 16.1282 11.8638 16.0346V13.349C11.8638 13.2554 11.9412 13.1798 12.0348 13.1798H15.9804C16.0758 13.1798 16.1514 13.2554 16.1514 13.349V16.0346C16.155 16.1282 16.0776 16.2038 15.9804 16.2038ZM15.9804 8.60777H12.0348C11.9394 8.60777 11.8638 8.53217 11.8638 8.43857V5.71517C11.8638 5.62157 11.9412 5.54597 12.0348 5.54597H15.9804C16.0758 5.54597 16.1514 5.62157 16.1514 5.71517V8.43857C16.155 8.53217 16.0776 8.60777 15.9804 8.60777Z" fill="#D15F5F"/>
</svg>
