<svg width="18" height="18" viewBox="0 0 18 18" fill="none" xmlns="http://www.w3.org/2000/svg">
<path d="M3.66784 11.9652C5.44323 14.0874 7.5804 15.7584 10.0197 16.9407C10.9484 17.3809 12.1904 17.903 13.5742 17.9925C13.66 17.9963 13.742 18 13.8278 18C14.7565 18 15.5025 17.6792 16.1105 17.0191C16.1142 17.0153 16.1216 17.0079 16.1254 17.0004C16.3417 16.7393 16.5879 16.5044 16.8452 16.2545C17.0205 16.0866 17.1996 15.9113 17.3711 15.7323C18.1656 14.9043 18.1656 13.8525 17.3637 13.0506L15.1221 10.809C14.7416 10.4136 14.2866 10.2047 13.8092 10.2047C13.3318 10.2047 12.873 10.4136 12.4814 10.8052L11.1461 12.1405C11.023 12.0696 10.8962 12.0062 10.7768 11.9465C10.6277 11.8719 10.4896 11.8011 10.3666 11.7228C9.15065 10.9507 8.04663 9.94364 6.9911 8.6494C6.45773 7.97431 6.09967 7.40738 5.84978 6.82926C6.20038 6.51223 6.5286 6.18027 6.84563 5.85578C6.95753 5.74016 7.07315 5.62453 7.18878 5.50891C7.59159 5.10609 7.80792 4.63987 7.80792 4.16618C7.80792 3.6925 7.59532 3.22627 7.18878 2.82346L6.07729 1.71198C5.94675 1.58143 5.82367 1.45462 5.69686 1.32408C5.45069 1.07045 5.19333 0.809366 4.93971 0.574389C4.55554 0.197679 4.10423 0 3.62682 0C3.15313 0 2.6981 0.197679 2.29901 0.578119L0.904062 1.97306C0.396809 2.48031 0.109614 3.09573 0.0499374 3.80812C-0.0209288 4.69954 0.143182 5.64691 0.56838 6.79196C1.22109 8.56361 2.20576 10.2085 3.66784 11.9652ZM0.960009 3.88645C1.00477 3.39039 1.19499 2.97638 1.55305 2.61832L2.94053 1.23083C3.15686 1.02196 3.39557 0.9138 3.62682 0.9138C3.85433 0.9138 4.08558 1.02196 4.29818 1.23829C4.54808 1.46954 4.78305 1.71198 5.03668 1.96933C5.16349 2.09988 5.29404 2.23042 5.42458 2.36469L6.53606 3.47617C6.76731 3.70742 6.88666 3.9424 6.88666 4.17364C6.88666 4.40489 6.76731 4.63987 6.53606 4.87111C6.42044 4.98674 6.30481 5.10609 6.18919 5.22172C5.84232 5.57232 5.51783 5.90427 5.15976 6.2213C5.1523 6.22876 5.14857 6.23249 5.14112 6.23995C4.83154 6.54952 4.88003 6.84418 4.95463 7.06797C4.95835 7.07915 4.96209 7.08661 4.96582 7.0978C5.25301 7.78782 5.6521 8.44426 6.27497 9.22752C7.39391 10.6075 8.57253 11.678 9.8705 12.5023C10.0309 12.6067 10.2025 12.6888 10.3628 12.7708C10.512 12.8454 10.65 12.9163 10.7731 12.9946C10.788 13.0021 10.7992 13.0095 10.8141 13.017C10.9372 13.0804 11.0566 13.1102 11.1759 13.1102C11.4743 13.1102 11.6683 12.92 11.7317 12.8566L13.1266 11.4617C13.3429 11.2453 13.5779 11.1297 13.8092 11.1297C14.0926 11.1297 14.3239 11.305 14.4693 11.4617L16.7184 13.707C17.166 14.1546 17.1623 14.6395 16.7072 15.1131C16.5506 15.281 16.3865 15.4414 16.2112 15.6092C15.9501 15.8628 15.6778 16.1239 15.4316 16.4186C15.0027 16.8811 14.4917 17.0974 13.8315 17.0974C13.7681 17.0974 13.701 17.0937 13.6376 17.0899C12.4142 17.0116 11.2766 16.5342 10.4225 16.1276C8.10258 15.005 6.06611 13.4123 4.37651 11.3908C2.98529 9.71612 2.04911 8.15707 1.42996 6.48612C1.04579 5.46042 0.900332 4.63614 0.960009 3.88645Z" fill="#266FE2"/>
</svg>
