<svg width="18" height="18" viewBox="0 0 18 18" fill="none" xmlns="http://www.w3.org/2000/svg">
<g clip-path="url(#clip0_13_14)">
<path d="M3.38902 1.82405C3.38902 1.40041 3.04439 1.05577 2.62071 1.05577H0.701639V0H2.62071C3.6265 0 4.44479 0.818255 4.44479 1.82405V3.39542L17.2983 4.39495L16.7219 10.0966C16.6077 11.2256 15.6659 12.0771 14.531 12.0771H4.44479V13.8053H14.4015C15.5579 13.8053 16.4988 14.7461 16.4988 15.9026C16.4988 17.0591 15.558 18 14.4015 18C13.2449 18 12.3041 17.0591 12.3041 15.9026C12.3041 15.5237 12.4056 15.1681 12.5822 14.861H5.73621C5.91277 15.1682 6.0143 15.5237 6.0143 15.9026C6.0143 17.0591 5.07343 18 3.91691 18C2.76039 18 1.81952 17.0591 1.81952 15.9026C1.81952 14.9284 2.48722 14.1073 3.38902 13.8726V1.82405ZM13.3598 15.9026C13.3598 16.4769 13.8271 16.9442 14.4015 16.9442C14.9758 16.9442 15.4431 16.477 15.4431 15.9026C15.4431 15.3283 14.9758 14.861 14.4015 14.861C13.8271 14.861 13.3598 15.3283 13.3598 15.9026ZM2.87532 15.9026C2.87532 16.4769 3.34257 16.9442 3.91694 16.9442C4.49132 16.9442 4.95856 16.477 4.95856 15.9026C4.95856 15.3283 4.49132 14.861 3.91694 14.861C3.34257 14.861 2.87532 15.3283 2.87532 15.9026ZM10.6873 7.48311H12.7205V5.09792L10.6873 4.9398V7.48311ZM9.63153 4.85769L7.5983 4.69957V7.48307H9.63153V4.85769ZM10.6873 8.53888V11.0213H12.7205V8.53888H10.6873ZM9.63153 8.53888H7.5983V11.0213H9.63153V8.53888ZM6.5425 8.53888H4.44479V11.0213H6.5425V8.53888ZM4.44479 4.45439V7.48314H6.5425V4.63897L4.44479 4.45439ZM13.7763 5.18002V7.48311H15.925L16.1392 5.36376L13.7763 5.18002ZM15.6715 9.99035L15.8183 8.53888H13.7763V11.0213H14.531C15.1218 11.0213 15.6121 10.5781 15.6715 9.99035Z" fill="white"/>
</g>
<defs>
<clipPath id="clip0_13_14">
<rect width="18" height="18" fill="white" transform="matrix(-1 0 0 1 18 0)"/>
</clipPath>
</defs>
</svg>
