<svg width="18" height="18" viewBox="0 0 18 18" fill="none" xmlns="http://www.w3.org/2000/svg">
<path d="M16.3637 2.45453H1.63635C0.732621 2.45453 0 3.18715 0 4.09091V13.9091C0 14.8128 0.732621 15.5455 1.63635 15.5455H16.3636C17.2673 15.5455 18 14.8128 18 13.9091V4.09091C18 3.18715 17.2674 2.45453 16.3637 2.45453ZM1.63635 3.27272H16.3636C16.4571 3.27332 16.5498 3.28991 16.6377 3.3218L9.55635 10.4032C9.25221 10.7093 8.75749 10.7109 8.45135 10.4068C8.45016 10.4056 8.44893 10.4044 8.44773 10.4032L1.36227 3.3218C1.45016 3.28991 1.54287 3.27328 1.63635 3.27272ZM0.818191 13.9091V4.09091C0.814008 4.04328 0.814008 3.99536 0.818191 3.94772L5.88273 8.99999L0.818191 14.0523C0.814008 14.0046 0.814008 13.9567 0.818191 13.9091ZM16.3637 14.7273H1.63635C1.54287 14.7267 1.45016 14.7101 1.36227 14.6782L6.46362 9.57684L7.86681 10.98C8.4903 11.6059 9.50305 11.6078 10.1289 10.9843C10.1303 10.9829 10.1318 10.9814 10.1332 10.98L11.5363 9.57684L16.6377 14.6782C16.5498 14.7101 16.4571 14.7267 16.3637 14.7273ZM17.1818 14.0523L12.1173 8.99999L17.1818 3.94772C17.186 3.99536 17.186 4.04328 17.1818 4.09091V13.9091C17.186 13.9567 17.186 14.0046 17.1818 14.0523Z" fill="#266FE2"/>
</svg>
